<svg width="319" height="116" viewBox="0 0 319 116" fill="none" xmlns="http://www.w3.org/2000/svg">
<path d="M247.289 52.2903L251.903 26.0346H282.69C282.69 26.0346 287.272 26.2329 288.894 29.4359V29.4589C288.907 29.4843 288.919 29.512 288.935 29.5396L300.225 52.2903H247.289ZM316.071 49.0273L298.18 21.4572C298.497 18.3257 296.308 15.833 293.126 15.833H251.237C247.905 15.833 244.7 18.5679 244.114 21.9115L231.434 94.0882C230.846 97.4318 233.088 100.167 236.42 100.167H248.323C250.485 87.8575 262.182 77.8772 274.447 77.8772C286.711 77.8772 294.895 87.8575 292.74 100.167H304.641C307.97 100.167 311.178 97.4318 311.764 94.0882L318.704 54.5755C319.139 52.1035 318.015 49.9636 316.069 49.0181L316.071 49.0273Z" fill="white"/>
<path d="M120.262 107.877C114.77 107.877 111.101 103.737 112.069 98.6145C113.038 93.4923 118.278 89.3522 123.773 89.3522C129.269 89.3522 132.938 93.4923 131.967 98.6145C130.996 103.737 125.758 107.877 120.262 107.877ZM125.273 81.4263C115.081 81.4263 105.361 89.1176 103.565 98.6053C101.769 108.093 108.573 115.784 118.765 115.784C128.957 115.784 138.675 108.093 140.471 98.6053C142.267 89.1176 135.465 81.4263 125.273 81.4263Z" fill="white"/>
<path d="M268.776 107.877C263.737 107.877 260.374 103.737 261.264 98.6145C262.154 93.4923 266.955 89.3522 271.99 89.3522C277.024 89.3522 280.394 93.4923 279.504 98.6145C278.614 103.737 273.813 107.877 268.776 107.877ZM273.364 81.4263C264.022 81.4263 255.115 89.1176 253.468 98.6053C251.822 108.093 258.059 115.784 267.399 115.784C276.739 115.784 285.653 108.093 287.299 98.6053C288.946 89.1176 282.706 81.4263 273.364 81.4263Z" fill="white"/>
<path d="M234.042 0.22961H102.837C98.4652 0.22961 94.2575 3.78968 93.4861 8.14038L93.3406 8.96317H33.9054C31.1479 8.96317 28.5221 11.1856 28.0348 13.9275C27.5475 16.6694 29.3904 18.8919 32.1456 18.8919H156.57C159.325 18.8919 161.164 21.1143 160.679 23.8562C160.194 26.5981 157.566 28.8205 154.81 28.8205H6.14842C3.39328 28.8205 0.765163 31.043 0.280184 33.7849C-0.204794 36.5268 1.63351 38.7492 4.38865 38.7492H108.774C111.518 38.7492 113.347 40.9786 112.864 43.7136C112.382 46.4485 109.749 48.6802 106.994 48.6802H42.7297C39.9745 48.6802 37.3464 50.9027 36.8614 53.6446C36.3764 56.3864 38.2147 58.6089 40.9699 58.6089H138.728C141.474 58.6089 143.303 60.8382 142.818 63.5755C142.333 66.3128 139.705 68.5376 136.949 68.5376H56.7987C54.0435 68.5376 51.4154 70.7623 50.9304 73.5042C50.4454 76.2461 52.2837 78.4686 55.0389 78.4686H81.0268L78.5811 92.2584C77.8098 96.6068 80.7566 100.167 85.1283 100.167H98.4629C98.5137 99.7394 98.5784 99.305 98.6546 98.8683C100.271 89.7164 107.227 81.8608 115.77 78.4571C118.675 77.2819 121.779 76.6696 124.915 76.6529C127.848 76.627 130.751 77.243 133.418 78.4571C140.758 81.8608 144.924 89.7187 143.303 98.8683C143.224 99.305 143.136 99.7394 143.032 100.167H216.331C220.703 100.167 224.911 96.6068 225.682 92.2584L240.587 8.12659C241.358 3.77589 238.412 0.21582 234.042 0.21582V0.22961Z" fill="white"/>
<path d="M247.289 52.2903L251.903 26.0346H282.69C282.69 26.0346 287.272 26.2329 288.894 29.4359V29.4589C288.907 29.4843 288.919 29.512 288.935 29.5396L300.225 52.2903H247.289ZM316.071 49.0273L298.18 21.4572C298.497 18.3257 296.308 15.833 293.126 15.833H251.237C247.905 15.833 244.7 18.5679 244.114 21.9115L231.434 94.0882C230.846 97.4318 233.088 100.167 236.42 100.167H248.323C250.485 87.8575 262.182 77.8772 274.447 77.8772C286.711 77.8772 294.895 87.8575 292.74 100.167H304.641C307.97 100.167 311.178 97.4318 311.764 94.0882L318.704 54.5755C319.139 52.1035 318.015 49.9636 316.069 49.0181L316.071 49.0273Z" fill="white"/>
<path d="M120.262 107.877C114.77 107.877 111.101 103.737 112.069 98.6145C113.038 93.4923 118.278 89.3522 123.773 89.3522C129.269 89.3522 132.938 93.4923 131.967 98.6145C130.996 103.737 125.758 107.877 120.262 107.877ZM125.273 81.4263C115.081 81.4263 105.361 89.1176 103.565 98.6053C101.769 108.093 108.573 115.784 118.765 115.784C128.957 115.784 138.675 108.093 140.471 98.6053C142.267 89.1176 135.465 81.4263 125.273 81.4263Z" fill="white"/>
<path d="M268.776 107.877C263.737 107.877 260.374 103.737 261.264 98.6145C262.154 93.4923 266.955 89.3522 271.99 89.3522C277.024 89.3522 280.394 93.4923 279.504 98.6145C278.614 103.737 273.813 107.877 268.776 107.877ZM273.364 81.4263C264.022 81.4263 255.115 89.1176 253.468 98.6053C251.822 108.093 258.059 115.784 267.399 115.784C276.739 115.784 285.653 108.093 287.299 98.6053C288.946 89.1176 282.706 81.4263 273.364 81.4263Z" fill="white"/>
<path d="M234.042 0.22961H102.837C98.4652 0.22961 94.2575 3.78968 93.4861 8.14038L93.3406 8.96317H33.9054C31.1479 8.96317 28.5221 11.1856 28.0348 13.9275C27.5475 16.6694 29.3904 18.8919 32.1456 18.8919H156.57C159.325 18.8919 161.164 21.1143 160.679 23.8562C160.194 26.5981 157.566 28.8205 154.81 28.8205H6.14842C3.39328 28.8205 0.765163 31.043 0.280184 33.7849C-0.204794 36.5268 1.63351 38.7492 4.38865 38.7492H108.774C111.518 38.7492 113.347 40.9786 112.864 43.7136C112.382 46.4485 109.749 48.6802 106.994 48.6802H42.7297C39.9745 48.6802 37.3464 50.9027 36.8614 53.6446C36.3764 56.3864 38.2147 58.6089 40.9699 58.6089H138.728C141.474 58.6089 143.303 60.8382 142.818 63.5755C142.333 66.3128 139.705 68.5376 136.949 68.5376H56.7987C54.0435 68.5376 51.4154 70.7623 50.9304 73.5042C50.4454 76.2461 52.2837 78.4686 55.0389 78.4686H81.0268L78.5811 92.2584C77.8098 96.6068 80.7566 100.167 85.1283 100.167H98.4629C98.5137 99.7394 98.5784 99.305 98.6546 98.8683C100.271 89.7164 107.227 81.8608 115.77 78.4571C118.675 77.2819 121.779 76.6696 124.915 76.6529C127.848 76.627 130.751 77.243 133.418 78.4571C140.758 81.8608 144.924 89.7187 143.303 98.8683C143.224 99.305 143.136 99.7394 143.032 100.167H216.331C220.703 100.167 224.911 96.6068 225.682 92.2584L240.587 8.12659C241.358 3.77589 238.412 0.21582 234.042 0.21582V0.22961Z" fill="white"/>
</svg>
