<svg width="239" height="30" viewBox="0 0 239 30" fill="none" xmlns="http://www.w3.org/2000/svg">
<path d="M75.5732 14.2473L76.1814 10.786H80.2401C80.2401 10.786 80.8441 10.8122 81.0579 11.2344V11.2375C81.0597 11.2408 81.0612 11.2444 81.0634 11.2481L82.5517 14.2473H75.5732ZM84.6407 13.8171L82.2822 10.1826C82.324 9.76978 82.0353 9.44116 81.6158 9.44116H76.0936C75.6544 9.44116 75.2319 9.8017 75.1547 10.2425L73.483 19.7575C73.4055 20.1983 73.7011 20.5588 74.1403 20.5588H75.7095C75.9946 18.9361 77.5365 17.6204 79.1534 17.6204C80.7702 17.6204 81.849 18.9361 81.5649 20.5588H83.1339C83.5728 20.5588 83.9956 20.1983 84.0728 19.7575L84.9878 14.5486C85.0451 14.2227 84.897 13.9406 84.6404 13.8159L84.6407 13.8171Z" fill="#0E182D"/>
<path d="M58.8274 21.5751C58.1033 21.5751 57.6196 21.0293 57.7473 20.3541C57.875 19.6788 58.5659 19.133 59.2903 19.133C60.0147 19.133 60.4984 19.6788 60.3704 20.3541C60.2424 21.0293 59.5518 21.5751 58.8274 21.5751ZM59.488 18.0881C58.1444 18.0881 56.863 19.1021 56.6262 20.3528C56.3894 21.6036 57.2864 22.6175 58.63 22.6175C59.9736 22.6175 61.2547 21.6036 61.4915 20.3528C61.7283 19.1021 60.8316 18.0881 59.488 18.0881Z" fill="#0E182D"/>
<path d="M78.4057 21.5751C77.7414 21.5751 77.2981 21.0293 77.4154 20.3541C77.5327 19.6788 78.1657 19.133 78.8294 19.133C79.4931 19.133 79.9374 19.6788 79.82 20.3541C79.7027 21.0293 79.0697 21.5751 78.4057 21.5751ZM79.0106 18.0881C77.7791 18.0881 76.6048 19.1021 76.3877 20.3528C76.1707 21.6036 76.9929 22.6175 78.2242 22.6175C79.4555 22.6175 80.6306 21.6036 80.8477 20.3528C81.0647 19.1021 80.2422 18.0881 79.0106 18.0881Z" fill="#0E182D"/>
<path d="M73.8269 7.38414H56.5302C55.9539 7.38414 55.3992 7.85346 55.2975 8.42701L55.2783 8.53548H47.443C47.0795 8.53548 46.7333 8.82847 46.6691 9.18993C46.6049 9.55139 46.8478 9.84437 47.211 9.84437H63.6138C63.9771 9.84437 64.2194 10.1374 64.1555 10.4988C64.0915 10.8603 63.7451 11.1533 63.3818 11.1533H43.7838C43.4206 11.1533 43.0742 11.4462 43.0102 11.8077C42.9463 12.1692 43.1886 12.4622 43.5518 12.4622H57.313C57.6746 12.4622 57.9158 12.756 57.8521 13.1166C57.7885 13.4771 57.4414 13.7713 57.0782 13.7713H48.6063C48.2431 13.7713 47.8966 14.0643 47.8327 14.4258C47.7688 14.7873 48.0111 15.0802 48.3743 15.0802H61.2617C61.6237 15.0802 61.8648 15.3741 61.8008 15.735C61.7369 16.0958 61.3904 16.3891 61.0272 16.3891H50.461C50.0978 16.3891 49.7513 16.6824 49.6874 17.0439C49.6235 17.4053 49.8658 17.6983 50.229 17.6983H53.655L53.3326 19.5162C53.2309 20.0895 53.6194 20.5588 54.1957 20.5588H55.9536C55.9603 20.5024 55.9688 20.4452 55.9789 20.3876C56.192 19.1811 57.109 18.1455 58.2351 17.6968C58.6181 17.5419 59.0273 17.4612 59.4408 17.459C59.8274 17.4556 60.2101 17.5368 60.5617 17.6968C61.5293 18.1455 62.0785 19.1814 61.8648 20.3876C61.8544 20.4452 61.8429 20.5024 61.8292 20.5588H71.4921C72.0684 20.5588 72.6231 20.0895 72.7248 19.5162L74.6897 8.42519C74.7914 7.85165 74.4029 7.38232 73.8269 7.38232V7.38414Z" fill="#0E182D"/>
<path d="M75.5732 14.2473L76.1814 10.786H80.2401C80.2401 10.786 80.8441 10.8122 81.0579 11.2344V11.2375C81.0597 11.2408 81.0612 11.2444 81.0634 11.2481L82.5517 14.2473H75.5732ZM84.6407 13.8171L82.2822 10.1826C82.324 9.76978 82.0353 9.44116 81.6158 9.44116H76.0936C75.6544 9.44116 75.2319 9.8017 75.1547 10.2425L73.483 19.7575C73.4055 20.1983 73.7011 20.5588 74.1403 20.5588H75.7095C75.9946 18.9361 77.5365 17.6204 79.1534 17.6204C80.7702 17.6204 81.849 18.9361 81.5649 20.5588H83.1339C83.5728 20.5588 83.9956 20.1983 84.0728 19.7575L84.9878 14.5486C85.0451 14.2227 84.897 13.9406 84.6404 13.8159L84.6407 13.8171Z" fill="#0E182D"/>
<path d="M58.8274 21.5751C58.1033 21.5751 57.6196 21.0293 57.7473 20.3541C57.875 19.6788 58.5659 19.133 59.2903 19.133C60.0147 19.133 60.4984 19.6788 60.3704 20.3541C60.2424 21.0293 59.5518 21.5751 58.8274 21.5751ZM59.488 18.0881C58.1444 18.0881 56.863 19.1021 56.6262 20.3528C56.3894 21.6036 57.2864 22.6175 58.63 22.6175C59.9736 22.6175 61.2547 21.6036 61.4915 20.3528C61.7283 19.1021 60.8316 18.0881 59.488 18.0881Z" fill="#0E182D"/>
<path d="M78.4057 21.5751C77.7414 21.5751 77.2981 21.0293 77.4154 20.3541C77.5327 19.6788 78.1657 19.133 78.8294 19.133C79.4931 19.133 79.9374 19.6788 79.82 20.3541C79.7027 21.0293 79.0697 21.5751 78.4057 21.5751ZM79.0106 18.0881C77.7791 18.0881 76.6048 19.1021 76.3877 20.3528C76.1707 21.6036 76.9929 22.6175 78.2242 22.6175C79.4555 22.6175 80.6306 21.6036 80.8477 20.3528C81.0647 19.1021 80.2422 18.0881 79.0106 18.0881Z" fill="#0E182D"/>
<path d="M73.8269 7.38414H56.5302C55.9539 7.38414 55.3992 7.85346 55.2975 8.42701L55.2783 8.53548H47.443C47.0795 8.53548 46.7333 8.82847 46.6691 9.18993C46.6049 9.55139 46.8478 9.84437 47.211 9.84437H63.6138C63.9771 9.84437 64.2194 10.1374 64.1555 10.4988C64.0915 10.8603 63.7451 11.1533 63.3818 11.1533H43.7838C43.4206 11.1533 43.0742 11.4462 43.0102 11.8077C42.9463 12.1692 43.1886 12.4622 43.5518 12.4622H57.313C57.6746 12.4622 57.9158 12.756 57.8521 13.1166C57.7885 13.4771 57.4414 13.7713 57.0782 13.7713H48.6063C48.2431 13.7713 47.8966 14.0643 47.8327 14.4258C47.7688 14.7873 48.0111 15.0802 48.3743 15.0802H61.2617C61.6237 15.0802 61.8648 15.3741 61.8008 15.735C61.7369 16.0958 61.3904 16.3891 61.0272 16.3891H50.461C50.0978 16.3891 49.7513 16.6824 49.6874 17.0439C49.6235 17.4053 49.8658 17.6983 50.229 17.6983H53.655L53.3326 19.5162C53.2309 20.0895 53.6194 20.5588 54.1957 20.5588H55.9536C55.9603 20.5024 55.9688 20.4452 55.9789 20.3876C56.192 19.1811 57.109 18.1455 58.2351 17.6968C58.6181 17.5419 59.0273 17.4612 59.4408 17.459C59.8274 17.4556 60.2101 17.5368 60.5617 17.6968C61.5293 18.1455 62.0785 19.1814 61.8648 20.3876C61.8544 20.4452 61.8429 20.5024 61.8292 20.5588H71.4921C72.0684 20.5588 72.6231 20.0895 72.7248 19.5162L74.6897 8.42519C74.7914 7.85165 74.4029 7.38232 73.8269 7.38232V7.38414Z" fill="#0E182D"/>
<path d="M108.835 16.6943V14.8638H102.007V17.3345H105.533L105.522 17.5928C105.455 19.603 103.916 20.9619 101.704 20.9619C99.0083 20.9619 97.3013 18.8169 97.3013 15.3018C97.3013 11.854 98.9072 9.82129 101.58 9.82129C103.411 9.82129 104.792 10.832 105.286 12.5278H108.689C108.206 9.24854 105.354 7.01367 101.569 7.01367C96.8071 7.01367 93.8423 10.1582 93.8423 15.3467C93.8423 20.6138 96.8071 23.7808 101.647 23.7808C106.162 23.7808 108.835 21.1079 108.835 16.6943ZM110.856 23.5H114.136V11.4609H110.856V23.5ZM112.496 10.1357C113.484 10.1357 114.248 9.3833 114.248 8.43994C114.248 7.48535 113.484 6.74414 112.496 6.74414C111.508 6.74414 110.744 7.48535 110.744 8.43994C110.744 9.3833 111.508 10.1357 112.496 10.1357ZM127.332 11.4609H123.906L121.413 20.6025H121.346L118.841 11.4609H115.326L119.493 23.5H123.199L127.332 11.4609ZM133.542 13.6284C135.002 13.6284 136.001 14.6841 136.069 16.2227H130.959C131.071 14.7178 132.104 13.6284 133.542 13.6284ZM136.114 19.8164C135.811 20.7373 134.89 21.3325 133.688 21.3325C132.015 21.3325 130.925 20.1533 130.925 18.4351V18.2329H139.225V17.2334C139.225 13.5723 137.012 11.2026 133.508 11.2026C129.948 11.2026 127.702 13.6958 127.702 17.5366C127.702 21.3887 129.926 23.7583 133.632 23.7583C136.608 23.7583 138.764 22.1748 139.124 19.8164H136.114ZM157.092 23.5H160.765L157.744 20.3442C158.62 19.1313 159.114 17.4243 159.114 15.4478V14.4033H156.385V15.2568C156.385 16.6494 156.194 17.6265 155.801 18.3228L152.724 14.9985C154.97 13.7744 156.003 12.4492 156.003 10.7871C156.003 8.6084 154.139 7.08105 151.488 7.08105C148.849 7.08105 146.895 8.67578 146.895 10.8433C146.895 12.0337 147.445 13.0444 148.905 14.5493C148.86 14.5718 148.344 14.8525 148.175 14.9424C146.109 16.0767 145.177 17.4131 145.177 19.2549C145.177 22.0063 147.389 23.792 150.826 23.792C152.791 23.792 154.644 23.1855 155.846 22.1523L157.092 23.5ZM149.961 16.5034C150.062 16.4473 150.287 16.3237 150.41 16.2676L154.127 20.2881C153.499 20.9731 152.331 21.4111 151.163 21.4111C149.422 21.4111 148.243 20.4453 148.243 18.9966C148.243 17.9971 148.737 17.2783 149.961 16.5034ZM151.208 13.4712C150.107 12.4043 149.703 11.7642 149.703 11.0117C149.703 10.001 150.455 9.25977 151.5 9.25977C152.555 9.25977 153.274 9.97852 153.274 11.0117C153.274 11.9888 152.679 12.7075 151.208 13.4712ZM180.957 16.6943V14.8638H174.129V17.3345H177.655L177.644 17.5928C177.577 19.603 176.038 20.9619 173.826 20.9619C171.13 20.9619 169.423 18.8169 169.423 15.3018C169.423 11.854 171.029 9.82129 173.702 9.82129C175.533 9.82129 176.914 10.832 177.408 12.5278H180.811C180.328 9.24854 177.476 7.01367 173.691 7.01367C168.929 7.01367 165.964 10.1582 165.964 15.3467C165.964 20.6138 168.929 23.7808 173.77 23.7808C178.284 23.7808 180.957 21.1079 180.957 16.6943ZM188.448 23.7583C192.086 23.7583 194.411 21.4336 194.411 17.4692C194.411 13.561 192.053 11.2026 188.448 11.2026C184.843 11.2026 182.484 13.5723 182.484 17.4692C182.484 21.4224 184.809 23.7583 188.448 23.7583ZM188.448 21.2539C186.831 21.2539 185.809 19.895 185.809 17.4805C185.809 15.0884 186.853 13.707 188.448 13.707C190.042 13.707 191.076 15.0884 191.076 17.4805C191.076 19.895 190.054 21.2539 188.448 21.2539Z" fill="#0E182D"/>
</svg>
